<svg width="46" height="46" viewBox="0 0 46 46" fill="none" xmlns="http://www.w3.org/2000/svg">
<circle cx="23.2038" cy="23.1549" r="22.5" fill="white"/>
<path d="M19.6141 35.9844V34.5433V33.1021H21.0553H22.4965V34.5433V35.9844H21.0553H19.6141ZM19.6141 33.9256V32.4844V31.0433H21.0553H22.4965V32.4844V33.9256H21.0553H19.6141ZM19.6141 31.8668V30.4256V28.9844H21.0553H22.4965V30.4256V31.8668H21.0553H19.6141ZM19.6141 29.808V28.3668V26.9256H21.0553H22.4965V28.3668V29.808H21.0553H19.6141ZM19.6141 27.7491V26.308V24.8668H21.0553H22.4965V26.308V27.7491H21.0553H19.6141ZM19.6141 25.6903V24.2491V22.808H21.0553H22.4965V24.2491V25.6903H21.0553H19.6141ZM19.6141 23.6315V22.1903V20.7491H21.0553H22.4965V22.1903V23.6315H21.0553H19.6141ZM17.5553 21.5727V20.1315V18.6903H18.9965H20.4376V20.1315V21.5727H18.9965H17.5553ZM19.6141 21.5727V20.1315V18.6903H21.0553H22.4965V20.1315V21.5727H21.0553H19.6141ZM21.6729 21.5727V20.1315V18.6903H23.1141H24.5553V20.1315V21.5727H23.1141H21.6729ZM23.7318 21.5727V20.1315V18.6903H25.1729H26.6141V20.1315V21.5727H25.1729H23.7318ZM19.6141 19.5138V18.0727V16.6315H21.0553H22.4965V18.0727V19.5138H21.0553H19.6141ZM19.6141 17.455V16.0138V14.5727H21.0553H22.4965V16.0138V17.455H21.0553H19.6141ZM19.6141 15.3962V13.955V12.5138H21.0553H22.4965V13.955V15.3962H21.0553H19.6141ZM21.6729 13.3374V11.8962V10.455H23.1141H24.5553V11.8962V13.3374H23.1141H21.6729ZM23.7318 13.3374V11.8962V10.455H25.1729H26.6141V11.8962V13.3374H25.1729H23.7318ZM25.7906 13.3374V11.8962V10.455H27.2318H28.6729V11.8962V13.3374H27.2318H25.7906Z" fill="#F15A59"/>
</svg>
